<?xml version="1.0" ?><svg viewBox="0 0 22.99 22.99" xmlns="http://www.w3.org/2000/svg"><title/><g data-name="Camada 2" id="Camada_2"><g data-name="Camada 1" id="Camada_1-2"><path d="M22.49,22H1.71L9.1,14.6l3.24,3.24a.5.5,0,0,0,.17.11.5.5,0,0,0,.38,0,.5.5,0,0,0,.17-.11L21.78,9.1v3.23a.5.5,0,0,0,1,0V7.89a.5.5,0,0,0-.5-.5H17.85a.5.5,0,0,0,0,1h3.23l-8.39,8.39L9.45,13.54a.5.5,0,0,0-.71,0L1,21.29V.5a.5.5,0,0,0-1,0v22a.5.5,0,0,0,.14.35h0a.52.52,0,0,0,.16.1A.51.51,0,0,0,.5,23h22a.5.5,0,0,0,0-1Z"/></g></g></svg>