<?xml version="1.0" ?><svg height="32" id="icon" viewBox="0 0 32 32" width="32" xmlns="http://www.w3.org/2000/svg"><defs><style>.cls-1{fill:none;}</style></defs><title/><rect height="4" width="4" x="19" y="24"/><rect height="4" width="4" x="26" y="24"/><rect height="4" width="4" x="19" y="17"/><rect height="4" width="4" x="26" y="17"/><path d="M17,24H4V10H28v5h2V10a2.0023,2.0023,0,0,0-2-2H22V4a2.0023,2.0023,0,0,0-2-2H12a2.002,2.002,0,0,0-2,2V8H4a2.002,2.002,0,0,0-2,2V24a2.0023,2.0023,0,0,0,2,2H17ZM12,4h8V8H12Z"/><rect class="cls-1" data-name="&lt;Transparent Rectangle&gt;" height="32" id="_Transparent_Rectangle_" width="32"/></svg>