<?xml version="1.0" ?><svg viewBox="0 0 64 64" xmlns="http://www.w3.org/2000/svg"><g id="Appointment"><path d="M16.0759,10.2748a1.5309,1.5309,0,0,0,1.5305-1.5306V2.6306a1.5306,1.5306,0,1,0-3.0612,0V8.7442A1.5309,1.5309,0,0,0,16.0759,10.2748Z"/><path d="M32,10.2748a1.5309,1.5309,0,0,0,1.5305-1.5306V2.6306a1.5306,1.5306,0,1,0-3.0612,0V8.7442A1.5309,1.5309,0,0,0,32,10.2748Z"/><path d="M47.9243,10.2748a1.5309,1.5309,0,0,0,1.53-1.5306V2.6306a1.5305,1.5305,0,1,0-3.061,0V8.7442A1.5309,1.5309,0,0,0,47.9243,10.2748Z"/><path d="M4.7571,23.4388v15.884h16.851V23.4389H4.7571Zm4.64,5.503a1.35,1.35,0,0,1,1.9805-1.8359l2.1211,2.2886L15.62,27.1059a1.35,1.35,0,1,1,1.98,1.8359L15.34,31.3808,17.6,33.82a1.35,1.35,0,0,1-1.98,1.8359l-2.1211-2.2886-2.1211,2.2886A1.35,1.35,0,1,1,9.3972,33.82l2.2605-2.439Z"/><rect height="15.8838" width="16.8501" x="42.7693" y="23.4389"/><rect height="18.5625" width="15.7627" x="24.3074" y="42.0219"/><path d="M55.0952,4.864h-3.14v3.88a4.0305,4.0305,0,1,1-8.061,0V4.864H36.0307v3.88a4.0306,4.0306,0,1,1-8.0612,0V4.864H20.1064v3.88a4.0306,4.0306,0,1,1-8.0612,0V4.864H9.2815A4.5243,4.5243,0,0,0,4.7571,9.3884V20.74H59.6194V9.3884A4.5242,4.5242,0,0,0,55.0952,4.864Z"/><rect height="15.8838" width="15.7627" x="24.3074" y="23.4389"/><path d="M4.7571,42.0218V56.06a4.5243,4.5243,0,0,0,4.5244,4.5244H21.6081V42.0219H4.7571Z"/><path d="M42.7693,60.5844H55.0952A4.5242,4.5242,0,0,0,59.6194,56.06V42.0219h-16.85Zm4.2588-11.54a1.35,1.35,0,1,1,1.98-1.836L51.13,49.4971l2.1216-2.2887a1.35,1.35,0,0,1,1.98,1.836l-2.2608,2.4389,2.2608,2.439a1.35,1.35,0,0,1-1.98,1.8359L51.13,53.47l-2.1216,2.2887a1.35,1.35,0,1,1-1.98-1.8359l2.2607-2.439Z"/></g></svg>